<svg width="44" height="44" fill="none" xmlns="http://www.w3.org/2000/svg"><rect width="44" height="44" rx="10" fill="#FBAB7E"/><rect width="44" height="44" rx="10" fill="#FBAB7E" fill-opacity=".58"/><rect width="44" height="44" rx="10" fill="url(#paint0_linear_201_2)"/><path d="M34.4 16.96c0 1.627-.374 3.12-1.12 4.48-.747 1.333-1.894 2.413-3.44 3.24-1.547.827-3.467 1.24-5.76 1.24h-4.24V36H13V7.92h11.08c2.24 0 4.133.387 5.68 1.16 1.546.773 2.706 1.84 3.48 3.2.773 1.36 1.16 2.92 1.16 4.68zm-10.84 3.52c1.306 0 2.28-.307 2.92-.92.64-.613.96-1.48.96-2.6s-.32-1.987-.96-2.6c-.64-.613-1.614-.92-2.92-.92h-3.72v7.04h3.72z" fill="#fff"/><defs><linearGradient id="paint0_linear_201_2" x1="3.5" y1="41" x2="48" y2="-1.5" gradientUnits="userSpaceOnUse"><stop offset=".17" stop-color="#FF9457"/><stop offset="1" stop-color="#FFD66F"/></linearGradient></defs></svg>